<?xml version="1.0" encoding="UTF-8"?>
<svg width="512px" height="512px" viewBox="0 0 512 512" version="1.1" xmlns="http://www.w3.org/2000/svg" xmlns:xlink="http://www.w3.org/1999/xlink">
    <title>MediViewerIcon</title>
    <defs>
        <linearGradient x1="50%" y1="0%" x2="50%" y2="100%" id="linearGradient-1">
            <stop stop-color="#013A77" offset="0%"></stop>
            <stop stop-color="#012C59" offset="100%"></stop>
        </linearGradient>
    </defs>
    <g id="MediViewerIcon" stroke="none" stroke-width="1" fill="none" fill-rule="evenodd">
        <path d="M146.141456,-5.90428975e-15 L365.858544,5.90428975e-15 C416.675112,-3.43056238e-15 435.102427,5.29105984 453.680205,15.2265641 C472.257983,25.1620684 486.837932,39.7420171 496.773436,58.3197949 C506.70894,76.8975727 512,95.3248882 512,146.141456 L512,365.858544 C512,416.675112 506.70894,435.102427 496.773436,453.680205 C486.837932,472.257983 472.257983,486.837932 453.680205,496.773436 C435.102427,506.70894 416.675112,512 365.858544,512 L146.141456,512 C95.3248882,512 76.8975727,506.70894 58.3197949,496.773436 C39.7420171,486.837932 25.1620684,472.257983 15.2265641,453.680205 C5.29105984,435.102427 2.28704159e-15,416.675112 -3.93619317e-15,365.858544 L3.93619317e-15,146.141456 C-2.28704159e-15,95.3248882 5.29105984,76.8975727 15.2265641,58.3197949 C25.1620684,39.7420171 39.7420171,25.1620684 58.3197949,15.2265641 C76.8975727,5.29105984 95.3248882,3.43056238e-15 146.141456,-5.90428975e-15 Z" id="Path" fill="url(#linearGradient-1)"></path>
        <g id="Mediviewer" transform="translate(36.000000, 35.000000)" fill="#FFFFFF" fill-rule="nonzero">
            <circle id="Oval" cx="340" cy="342" r="56"></circle>
            <path d="M215.704646,311 L135,290.326087 C154.286157,215.293478 212.912154,156.548913 287.982825,137 L309,217.494565 C263.209667,229.413043 227.462506,265.25 215.704646,311 Z" id="Path"></path>
            <path d="M80.6028853,274 L0,252.857519 C15.8854785,191.839335 48.0156139,136.033018 92.929233,91.4535231 C137.875505,46.8576385 193.874673,15.2258643 254.902339,0 L275,81.1609044 C179.883044,104.89293 105.386191,178.793277 80.6028853,274 Z" id="Path"></path>
        </g>
    </g>
</svg>